<?xml version="1.0" standalone="no"?>
<!DOCTYPE svg PUBLIC "-//W3C//DTD SVG 1.1//EN" "http://www.w3.org/Graphics/SVG/1.1/DTD/svg11.dtd" >
<svg xmlns="http://www.w3.org/2000/svg" xmlns:xlink="http://www.w3.org/1999/xlink" version="1.1">
<metadata>
Created by FontForge 20170731 at Thu Jun 20 21:33:48 2019
 By Aleksey,,,
Copyright (c) 2019 by Dierstudio. All rights reserved.
</metadata>
<defs>
<font id="Calingham" horiz-adv-x="510" >
  <font-face 
    font-family="Calingham"
    font-weight="400"
    font-stretch="normal"
    units-per-em="1000"
    panose-1="0 0 0 0 0 0 0 0 0 0"
    ascent="750"
    descent="-250"
    x-height="326"
    cap-height="607"
    bbox="-341 -202.2 2892.17 684"
    underline-thickness="50"
    underline-position="-150"
    unicode-range="U+000D-007A"
  />
<missing-glyph horiz-adv-x="296" 
 />
    <glyph glyph-name=".notdef" horiz-adv-x="296" 
 />
    <glyph glyph-name=".null" horiz-adv-x="0" 
 />
    <glyph glyph-name="nonmarkingreturn" unicode="&#xd;" horiz-adv-x="214" 
 />
    <glyph glyph-name="NULL" horiz-adv-x="0" 
 />
    <glyph glyph-name="NULL" horiz-adv-x="0" 
 />
    <glyph glyph-name="space" unicode=" " horiz-adv-x="214" 
 />
    <glyph glyph-name="A" unicode="A" horiz-adv-x="530" 
d="M549 324q2 -3 3 -7q2 -7 -1 -16q-5 0 -25.5 -0.5t-50.5 -1.5q-42 -67 -76 -132.5t-54 -121.5t-23.5 -98t14.5 -61q-20 7 -35 19q-14 11 -24.5 29t-10.5 47q0 30 10 67t27.5 78t41 84t49.5 86q-20 -1 -41 -1.5t-43 -2.5q-39 -41 -70 -81t-50.5 -76t-24.5 -66t8 -52
q-16 6 -28 17q-11 9 -19.5 24t-9.5 38q-21 43 -41.5 72t-37 48t-27 29.5t-10.5 17.5q0 29 73 39q24 4 72.5 7.5t108.5 6.5q54 55 116.5 107t118 93t96.5 66t52 25q8 0 16 -5t14.5 -11.5t10.5 -14t4 -12.5q-49 -49 -97.5 -111t-92.5 -129h57zM120 130q10 35 38.5 75t68.5 83
q-40 -2 -76.5 -5t-64.5 -6t-45 -6t-19 -7q-1 -2 9 -13.5t25 -29.5t32.5 -41.5t31.5 -49.5zM338 320q37 1 72 3q26 39 51.5 76t49.5 70q-45 -34 -89 -72t-84 -77z" />
    <glyph glyph-name="B" unicode="B" horiz-adv-x="609" 
d="M521 607q56 0 86 -23t37.5 -60.5t-4.5 -84.5t-41 -95t-72 -92t-97 -76q35 0 60 -14.5t25 -51.5q0 -51 -29 -91.5t-74.5 -69.5t-102 -45.5t-110.5 -17.5q-45 -1 -85.5 9t-68 31.5t-39.5 56t-1 82.5q4 -32 20.5 -53.5t42.5 -34.5t59 -18.5t69 -3.5q52 2 105 15.5t96 35.5
t70.5 50.5t27.5 60.5q0 21 -20.5 30t-51 7t-65.5 -15t-64 -35q-12 -35 -12.5 -62t15.5 -39q-19 4 -33 14q-13 8 -23 24t-10 42q0 36 22 88.5t52 106.5q-70 -10 -100 10.5t-28 57t31 82t76.5 85.5t109 67t127.5 27zM331 193q40 13 84.5 46.5t84 76.5t68 89t36 84.5t-12 63.5
t-76.5 25q-55 0 -110 -24t-100 -59t-74.5 -74.5t-33 -71t23.5 -48t95 -4.5q20 35 40.5 67t37.5 56t28.5 38.5t14.5 14.5q9 0 18 -4.5t15.5 -10.5t11 -12t4.5 -10q-17 -22 -37 -50t-40.5 -60t-40.5 -66t-37 -67z" />
    <glyph glyph-name="C" unicode="C" horiz-adv-x="437" 
d="M400 576q-23 0 -55.5 -18.5t-68 -52.5t-71 -81t-64 -104t-46 -121.5t-17.5 -132.5q0 -57 22 -92.5t66 -35.5q28 0 56 11t54.5 29.5t50 42t44.5 47.5q48 57 90 131h27q-49 -88 -104 -157q-24 -29 -51.5 -57t-57.5 -50t-62.5 -35.5t-66.5 -13.5q-24 0 -49.5 10t-47 32
t-35.5 57t-14 85q0 65 18.5 130.5t49.5 125t71.5 111t84.5 89.5t88.5 59.5t83.5 21.5t57.5 -29t19 -72t-14 -93t-42 -93t-65.5 -70.5t-84 -26.5q26 15 51 47t46 71t36 80.5t21 76t1.5 56.5t-22.5 22z" />
    <glyph glyph-name="D" unicode="D" horiz-adv-x="580" 
d="M403 605q61 0 97 -26.5t50.5 -71t9.5 -102t-25 -120t-53 -124t-75.5 -114.5t-92.5 -92.5t-102.5 -56.5t-106.5 -7.5t-105 55.5q61 -24 121 -9.5t114 54t100.5 99t80 125t52.5 130.5t19.5 117t-21 84.5t-68.5 32.5q-37 0 -75 -17t-73 -44.5t-64 -61t-47.5 -66t-24.5 -60
t6 -43t44.5 -15.5t89.5 23q20 35 40.5 67t37.5 56t29 38.5t14 14.5q9 0 18 -4.5t16 -10.5t11 -12t4 -10q-22 -29 -49.5 -68.5t-54 -83t-49 -88t-36 -83t-15 -68t15.5 -42.5q-19 4 -33 14q-13 8 -23 24t-10 43q0 35 21.5 87.5t51.5 105.5q-57 -23 -91 -21t-48 21t-10 50.5
t22 68.5t47.5 74.5t67.5 68t82 49.5t90 19z" />
    <glyph glyph-name="E" unicode="E" 
d="M317 302q25 -3 55 16.5t58.5 50.5t53 68t38.5 68.5t15 53t-17 21.5q-28 0 -67.5 -20.5t-81 -52.5t-80.5 -72t-65.5 -79.5t-36 -73.5t7.5 -55t65 -24t137 20q9 -5 14.5 -24t1.5 -35q-34 -5 -76 -17.5t-86 -30t-85.5 -37.5t-74 -40t-52 -37.5t-18.5 -30.5q1 -15 28.5 -19.5
t68.5 0t89 17t90.5 31t72 43t34.5 52.5q17 -22 15.5 -46t-18 -47.5t-46 -44t-68 -36.5t-84.5 -25.5t-95 -9.5q-30 0 -51 7t-34 18.5t-19 26.5t-6 31q0 28 22.5 55.5t58 52.5t80 47.5t89.5 41.5q-47 8 -70.5 29.5t-23.5 51.5q0 37 19 78t49.5 81t69.5 76.5t79 64t77.5 44
t65.5 16.5q29 0 43.5 -16.5t16.5 -42.5t-6.5 -58.5t-26 -64.5t-42.5 -61t-54.5 -47.5t-62.5 -24t-67 9.5z" />
    <glyph glyph-name="F" unicode="F" horiz-adv-x="422" 
d="M757 647q1 -49 -23.5 -75.5t-66 -37t-94.5 -7t-109 14t-109.5 25t-95.5 27t-67.5 20.5t-25.5 4q0 -8 9 -22t24 -32t35 -39.5t41 -43.5q27 33 47 52.5t28 19.5t16 -5t14 -11.5t10 -14t4 -12.5q-18 -19 -35.5 -38.5t-34.5 -40.5q20 -21 38 -40t32 -34.5t22 -27.5t8 -18
q0 -10 -10 -22t-21 -12q-3 0 -17 3t-35.5 7t-49 8.5t-57.5 8.5q-39 -62 -67.5 -123t-44 -112t-16.5 -88.5t16 -53.5q-20 6 -35 18q-13 11 -23.5 29t-10.5 47q0 31 8.5 66.5t23 73t33.5 75.5t41 75q-51 2 -93.5 -4.5t-65.5 -29.5q-3 38 12.5 59.5t43 30.5t63.5 7.5t74 -8.5
q17 26 33 49.5t32 43.5q-22 22 -42 44t-35.5 42t-25 37t-9.5 29q0 2 1.5 8t6 12t11.5 11t19 5q11 0 47 -6.5t87.5 -14.5t112.5 -15t121 -7t114 9.5t91 33.5zM403 311q0 6 -28.5 33.5t-66.5 65.5q-12 -14 -22.5 -29.5t-21.5 -30.5q28 -8 53.5 -15.5t44.5 -13.5t30 -9t11 -1z
" />
    <glyph glyph-name="G" unicode="G" horiz-adv-x="527" 
d="M402 214q14 0 25 -4t18.5 -9.5t11 -10.5t3.5 -7q-13 -20 -28 -48t-30 -58.5t-27.5 -62t-19.5 -57.5t-7 -45t10 -25q-15 -1 -26 5t-18 16.5t-10 25t-1 29.5q-30 -33 -69 -55t-88 -22q-24 0 -49.5 10t-47 32t-35.5 57t-14 85q0 65 18.5 130.5t49.5 125t71.5 111t84.5 89.5
t88.5 59.5t83.5 21.5t57.5 -29t19 -72t-14 -93t-42 -93t-65.5 -71t-84 -26q26 15 51 46.5t46 71t36 81t21 75.5t1.5 56t-22.5 22q-23 0 -55.5 -18.5t-69 -52.5t-72.5 -81t-64.5 -103.5t-46.5 -121t-18 -132.5q0 -57 24 -92.5t68 -35.5q50 0 89 32t67 74q10 31 23.5 61.5
t25.5 54.5t21 39t10 15z" />
    <glyph glyph-name="H" unicode="H" horiz-adv-x="539" 
d="M469 324q48 2 80 0q2 -3 3 -7q2 -7 -1 -16q-7 0 -33 -0.5t-65 -2.5q-42 -66 -76 -131.5t-54.5 -121.5t-24 -97.5t14.5 -60.5q-20 6 -35 18q-13 11 -23.5 29t-10.5 47q0 30 10 67t27 77.5t40.5 83.5t49.5 86q-22 -1 -44 -1.5t-45 -2.5q-28 -45 -51.5 -88.5t-38.5 -80.5
t-18.5 -65t8.5 -41q-34 0 -49 22t-15 52q-21 45 -42 75t-38 49.5t-27.5 30.5t-10.5 18q0 17 17.5 25.5t55.5 14.5q20 2 57.5 5.5t84.5 5.5q22 37 43.5 71t39 59.5t29.5 41t14 15.5q20 0 36 -10.5t21 -27.5q-23 -32 -48.5 -69t-50.5 -75q23 1 45 1.5t44 1.5q36 57 73.5 108.5
t69 91t54.5 62.5t30 23q8 0 16 -4.5t14.5 -11.5t10.5 -14t4 -13q-49 -49 -97.5 -111t-93.5 -129zM124 122q10 34 30 76.5t45 87.5q-35 -2 -66.5 -4.5t-55.5 -5t-38.5 -5.5t-16.5 -6q-1 -2 10 -14.5t27 -32t34 -44.5t31 -52z" />
    <glyph glyph-name="I" unicode="I" horiz-adv-x="410" 
d="M168 607q11 0 51 -9t96 -19.5t121.5 -19.5t126.5 -9t110.5 12.5t75.5 44.5q0 -47 -26.5 -73.5t-69 -38t-97 -10t-110.5 9.5q-61 -64 -112 -139t-87.5 -148t-56 -136t-16.5 -103q39 4 75.5 1t59 -17.5t25.5 -43.5t-23 -76q-2 22 -19.5 37t-44.5 24t-60 12.5t-66 2.5
t-62.5 -5.5t-48.5 -12.5q-4 2 -7.5 12.5t-1.5 20.5q5 4 18 9.5t31 11t40.5 11t46.5 9.5q-8 11 -12.5 24.5t-4.5 32.5q0 49 20 107.5t50 118.5q3 59 -4.5 112.5t-18.5 97t-20.5 74t-9.5 44.5q0 11 10 21t21 10zM210 285q19 34 39.5 66.5t40.5 61.5t39.5 53.5t35.5 42.5
q-42 9 -79.5 18.5t-65.5 17t-44.5 11.5t-16.5 3q0 -3 7.5 -27.5t17 -62.5t17.5 -86t9 -98z" />
    <glyph glyph-name="J" unicode="J" horiz-adv-x="463" 
d="M459 607q31 0 42 -16t11 -30t-10.5 -50t-29.5 -86t-45.5 -109.5t-58.5 -119t-68.5 -115.5t-75.5 -99t-79.5 -69t-80.5 -26q-37 0 -52 26.5t-10.5 66t28 86.5t64.5 88.5t98.5 71t129.5 34.5q24 45 45.5 90t39 85.5t29.5 74.5t18 58q-38 0 -80 -14.5t-81 -38.5t-73 -54.5
t-56.5 -63.5t-32 -65t1.5 -58q-50 30 -60.5 66t7.5 73t59 72t94 62t112 43.5t114 16.5zM64 -61q23 0 53 25.5t63 67.5t67 97t66 114q-63 -11 -111 -38t-81.5 -61t-53.5 -70t-26.5 -66t-0.5 -49.5t24 -19.5z" />
    <glyph glyph-name="K" unicode="K" 
d="M146 209q16 -31 42.5 -71t59 -80t69 -76.5t73 -60.5t72 -31t65.5 12q-35 -56 -76.5 -66.5t-84 9.5t-83.5 62.5t-76 93.5t-61.5 102t-39.5 87q-32 -61 -45.5 -108t3.5 -66q-32 0 -48 21.5t-16 46.5q0 26 16 67t39.5 87t52 93t53 85t42 61.5t20.5 23.5q20 0 35.5 -10.5
t20.5 -27.5q-34 -48 -72.5 -105.5t-71.5 -114.5q39 13 81.5 38t83 56.5t76 68t60 72.5t35 69.5t0.5 59.5q50 -37 58 -77.5t-13.5 -81t-65 -79t-96.5 -70.5t-108.5 -55.5t-99.5 -34.5z" />
    <glyph glyph-name="L" unicode="L" horiz-adv-x="398" 
d="M154 -45q49 15 98 21.5t88.5 -3.5t64 -39.5t24.5 -86.5q-21 26 -50.5 39.5t-64.5 18.5t-73 2.5t-74 -8.5q-85 -15 -180 -52q-3 3 -6 7q-2 4 -4 8.5t-2 11.5q24 16 61.5 34.5t82.5 34.5q-8 11 -13.5 25t-5.5 34q0 51 20.5 113t52 124.5t69 121.5t71.5 105t60 73.5t35 27.5
q8 0 16 -4.5t14.5 -11.5t10.5 -14t4 -13q-42 -42 -80.5 -92.5t-72 -103.5t-60.5 -107t-46.5 -103t-30 -91t-9.5 -72z" />
    <glyph glyph-name="M" unicode="M" horiz-adv-x="668" 
d="M810 564q-50 -50 -94.5 -111t-81.5 -124.5t-64.5 -125t-42.5 -113.5t-16 -90t15 -53q-20 7 -35 19q-13 11 -23.5 29t-10.5 47q0 48 18.5 105.5t47 117t63.5 116t68 102.5q-38 -42 -82 -94t-88 -106t-84 -106t-69 -93q-13 3 -23 10q-9 6 -16 17t-7 30q0 15 9 43t24.5 64
t35 76t40.5 80t41 76.5t37 64.5q-31 -33 -77 -89.5t-96 -124t-98 -141t-83 -141.5q-21 -52 -29.5 -94t5.5 -69q-21 2 -37 13q-14 9 -25 29t-11 57q0 22 9 51.5t24.5 63.5t35.5 71.5t42 75.5q-64 5 -95.5 34t-36 69t14 85t53.5 83.5t83 63.5t102 25q51 0 65.5 -28t5 -74.5
t-37 -106.5t-60.5 -125q44 64 90.5 124t87 106.5t70.5 75t42 28.5q17 0 31 -12.5t14 -24.5q-18 -34 -47.5 -87.5t-61 -112.5t-60.5 -117.5t-45 -103.5q20 26 55 70.5t76.5 95.5t86 103t84 94t70.5 68.5t46 26.5q8 0 16 -5t14.5 -11.5t10.5 -14t4 -12.5zM251 583
q-43 0 -84 -22t-72.5 -55.5t-49.5 -73t-15.5 -74t29 -59.5t85.5 -29q34 59 66 115.5t51 100.5t19.5 70.5t-29.5 26.5z" />
    <glyph glyph-name="N" unicode="N" horiz-adv-x="521" 
d="M646 564q-50 -50 -94.5 -111t-81.5 -124.5t-64.5 -125t-42.5 -113.5t-16 -90t15 -53q-20 7 -35 19q-13 11 -23.5 29t-10.5 47q0 53 22 117.5t55.5 130t72.5 125.5t74 105q-42 -38 -97.5 -93t-112 -118.5t-107 -130.5t-83.5 -130q-20 -51 -28.5 -93t5.5 -69q-21 2 -37 13
q-14 9 -25 29t-11 57q0 22 9 51.5t24.5 63.5t35.5 71.5t42 75.5q-64 5 -95.5 34t-36 69t14 85t53.5 83.5t83 63.5t102 25q38 0 55.5 -15.5t19.5 -43.5t-9.5 -65.5t-30.5 -81t-43.5 -92t-49.5 -96.5q55 70 117.5 140t120.5 126.5t105 91.5t70 35q14 -4 26 -18t12 -24z
M251 583q-43 0 -84 -22t-72.5 -55.5t-49.5 -73t-15.5 -74t29 -59.5t85.5 -29q34 59 66 115.5t51 100.5t19.5 70.5t-29.5 26.5z" />
    <glyph glyph-name="O" unicode="O" horiz-adv-x="504" 
d="M358 607q59 0 89.5 -31t38 -81.5t-4.5 -115.5t-38 -132.5t-62.5 -132.5t-78 -115.5t-84.5 -81.5t-81 -31q-66 0 -101.5 37t-35.5 100q0 40 12.5 90t34.5 102q-20 22 -15.5 59t25 80.5t55 88.5t75.5 81.5t85.5 59.5t85.5 23zM95 -92q31 0 66.5 29t71 76.5t69 108t60 123.5
t43.5 123.5t20.5 108t-9 76.5t-45.5 29q-32 0 -70 -17.5t-75 -46t-70 -64.5t-56.5 -73t-34 -71.5t-2.5 -59.5q23 47 52.5 90.5t62 77t68 53.5t70.5 20q26 0 40 -21.5t15.5 -56t-9.5 -76t-34.5 -81.5t-60.5 -73.5t-87 -51.5q26 22 50.5 56t44.5 71.5t34.5 75t22 67.5
t6.5 48.5t-12 18.5q-24 0 -51.5 -22t-55 -58.5t-53.5 -83.5t-48 -97q15 -3 34.5 -3.5t43.5 2.5q-26 -7 -46.5 -10.5t-37.5 -3.5q-22 -53 -37 -104t-19 -91t4.5 -64.5t34.5 -24.5z" />
    <glyph glyph-name="P" unicode="P" horiz-adv-x="462" 
d="M340 607q54 0 88 -20.5t49 -54t13 -76.5t-19 -88t-48.5 -88t-75 -76.5t-97.5 -54t-117 -20.5h-3q-20 -43 -33 -82t-18.5 -71t-2.5 -55t15 -35q-20 7 -35 19q-14 11 -24.5 29t-10.5 47q0 32 9 68.5t24 74.5t35 77t42 77q-73 -13 -103.5 6.5t-27.5 56t33.5 82.5t78.5 87
t107.5 69t120.5 28zM160 190q50 6 98 37t86 74t62.5 91.5t27.5 89.5t-20 68t-79 27q-52 0 -105.5 -24.5t-98 -60t-74.5 -75t-34 -70.5t23 -46.5t97 -2.5q28 45 56 84t52 68t42 45.5t25 16.5q8 0 16 -4.5t14.5 -11.5t10.5 -14t4 -13q-62 -61 -113.5 -134t-89.5 -145z" />
    <glyph glyph-name="Q" unicode="Q" horiz-adv-x="516" 
d="M252 -56q7 -8 18 -17.5t25.5 -18t32 -12.5t37.5 -1q-19 -37 -41 -50.5t-44.5 -9.5t-44.5 22.5t-41 45.5q-29 -17 -57 -17q-66 0 -101.5 37t-35.5 100q0 40 12.5 90t34.5 102q-20 22 -15.5 59t25 80.5t55 88.5t75.5 81.5t85.5 59.5t85.5 23q65 0 95.5 -37t34.5 -96.5
t-15 -133.5t-52.5 -147.5t-78 -139.5t-90.5 -109zM95 -92q34 0 75 36q-14 26 -21.5 48t-9.5 33q5 8 15 13t14 4q14 -28 41 -58q38 44 74 105.5t66 128t50 131.5t25.5 117t-6.5 84t-47 32q-32 0 -70 -17.5t-75 -46t-70 -64.5t-56.5 -73t-34 -71.5t-2.5 -59.5q23 47 52.5 90.5
t62 77t68 53.5t70.5 20q26 0 40 -21.5t15.5 -56t-9.5 -76t-34.5 -81.5t-60.5 -73.5t-87 -51.5q26 22 50.5 56t44.5 71.5t34.5 75t22 67.5t6.5 48.5t-12 18.5q-24 0 -51.5 -22t-55 -58.5t-53.5 -83.5t-48 -97q15 -3 34.5 -3.5t43.5 2.5q-26 -7 -46.5 -10.5t-37.5 -3.5
q-22 -53 -37 -104t-19 -91t4.5 -64.5t34.5 -24.5z" />
    <glyph glyph-name="R" unicode="R" horiz-adv-x="431" 
d="M159 105q24 -30 58 -64t74.5 -57.5t86 -30t92.5 18.5q-36 -47 -71.5 -65t-69.5 -15t-64.5 23t-57 48t-47.5 60.5t-35 60.5q-18 -41 -30 -77t-16.5 -66t-1.5 -52t15 -33q-20 7 -35 19q-13 11 -23.5 29t-10.5 47q0 32 8.5 68t23.5 74.5t35 77.5t42 76q-55 -9 -85.5 0
t-41 30.5t-2.5 52t29.5 64t55 66t74.5 59t87 42.5t94 16q62 0 93 -29t36 -74.5t-15.5 -100.5t-61.5 -107.5t-101 -96t-135 -64.5zM338 547q-51 0 -104 -24t-96 -59t-72 -75t-33.5 -71t21 -47t90.5 -4q28 45 56 84t52.5 68t42 46t24.5 17q8 0 16 -4.5t14.5 -11.5t10.5 -14
t4 -13q-60 -60 -111 -131t-89 -143q43 16 88.5 50.5t83 77t64 87.5t31 82t-16 61t-76.5 24z" />
    <glyph glyph-name="S" unicode="S" horiz-adv-x="551" 
d="M540 585q-29 0 -65.5 -10.5t-73.5 -28t-72.5 -42t-63 -52t-44 -57.5t-16.5 -59q0 -21 18 -48t45 -56.5t58.5 -60.5t58.5 -61t45 -57.5t18 -50.5q0 -30 -24.5 -53t-63 -38t-86.5 -21.5t-95 -2t-87.5 20t-64.5 43.5t-27 69.5t26 98.5q-7 -48 19.5 -80t70.5 -51t97.5 -26
t99.5 -3.5t77.5 16t31.5 32.5t-21 46t-52.5 55.5t-68 62.5t-68 67.5t-52.5 69.5t-21 70q0 30 18 58.5t48 54.5t68 47.5t77.5 37.5t78 25t68.5 9q48 0 68.5 -27.5t19 -67t-22.5 -83.5t-57 -78t-84 -49.5t-103 1.5q38 -1 72 19.5t62 51.5t49.5 67.5t33.5 67.5t14 52t-9 21z
" />
    <glyph glyph-name="T" unicode="T" horiz-adv-x="381" 
d="M774 607q9 -53 -19 -82.5t-79.5 -41.5t-120.5 -10.5t-142 11.5q-47 -51 -88.5 -111t-76 -121.5t-60 -121t-39.5 -109t-14.5 -85.5t14.5 -50q-20 7 -35 19q-13 11 -23.5 29t-10.5 47q0 54 25 122t62 138q2 40 -10 78t-30.5 72t-40.5 63.5t-41 53.5t-32 41.5t-13 26.5
q0 10 10 20.5t21 10.5q8 0 41 -5.5t82.5 -13t110.5 -15.5t125 -14t126.5 -8.5t115 2t90.5 17.5t52 37zM186 275q37 66 77 124.5t72 97.5q-62 11 -118.5 23.5t-100 23t-69 17t-25.5 5.5q0 -2 11 -15t28 -33.5t37 -47.5t38.5 -58.5t32 -66.5t17.5 -70z" />
    <glyph glyph-name="U" unicode="U" horiz-adv-x="533" 
d="M652 564q-53 -59 -97.5 -123t-79.5 -127t-60 -122t-38.5 -108t-16 -85t7.5 -52q-20 7 -35 19q-13 11 -23.5 29t-10.5 47q0 40 16 91.5t42 107.5q-43 -65 -86.5 -128.5t-79.5 -113.5t-62 -81.5t-35 -31.5q-5 0 -17 3t-25 13t-22.5 30t-8.5 53q0 22 9 51.5t24.5 63.5
t35.5 71.5t42 75.5q-64 5 -95.5 34t-36 69t14 85t53.5 83.5t83 63.5t102 25q46 0 62.5 -22.5t12 -61t-25.5 -89.5t-49 -108t-59.5 -116.5t-56.5 -114.5t-40 -103t-10 -82q11 5 36.5 37.5t60.5 82.5t76.5 112.5t85 126.5t85 124.5t77 108t61.5 76.5t38 29q8 0 16 -5
t14.5 -11.5t10.5 -14t4 -12.5zM251 583q-43 0 -84 -22t-72.5 -55.5t-49.5 -73t-15.5 -74t29 -59.5t85.5 -29q34 59 66 115.5t51 100.5t19.5 70.5t-29.5 26.5z" />
    <glyph glyph-name="V" unicode="V" horiz-adv-x="568" 
d="M497 684q70 -33 94.5 -85t16 -114.5t-43 -131t-83 -135t-103.5 -126.5t-104 -106t-85.5 -73t-47.5 -27q-4 0 -16 2t-25 10t-23 25.5t-10 47.5q0 24 7.5 55.5t19.5 67.5t28 75t33 78q-68 3 -104.5 31t-46.5 68t3 86t43.5 84.5t75.5 64.5t100 26q47 0 67.5 -22t21.5 -59.5
t-13 -87t-35 -105.5t-46 -114.5t-46 -113.5t-34 -103t-10 -83q19 14 49.5 46t66 76.5t74 99t73.5 113t63 118.5t44 116.5t16.5 107t-20.5 88.5zM225 583q-44 0 -82.5 -22.5t-65.5 -56t-40 -73.5t-5 -75t39.5 -59.5t93.5 -27.5q26 60 49.5 117t35.5 100.5t8 70t-33 26.5z" />
    <glyph glyph-name="W" unicode="W" horiz-adv-x="833" 
d="M760 684q70 -33 94.5 -85t16.5 -114.5t-42.5 -131t-82.5 -135t-102.5 -127t-104 -106t-86 -72.5t-48.5 -27q-23 -1 -41 9q-15 8 -27.5 28t-12.5 58q0 48 15 110t38.5 128.5t52.5 132t56 118.5q-28 -40 -60.5 -90.5t-66.5 -101.5t-66.5 -100t-60.5 -87t-48.5 -61
t-30.5 -23q-18 1 -32 11q-12 8 -21.5 25.5t-9.5 51.5q0 31 13 70t33 82q-66 4 -98 32.5t-37 68.5t13.5 85.5t53.5 84t83 64t102 25.5q48 0 67.5 -18t19 -48.5t-16 -71.5t-39 -87t-49.5 -95t-47.5 -95.5t-34 -88t-7.5 -73.5q10 2 31 28t49.5 67t62 92.5t68.5 105t69.5 104.5
t64 91t52 64.5t33.5 24.5q8 0 16.5 -4t15.5 -10t11.5 -13t4.5 -13q-30 -39 -60 -92.5t-57.5 -114t-50.5 -124t-38.5 -122.5t-22 -109.5t-0.5 -85.5q25 19 69.5 69t94.5 117.5t98 147.5t80.5 158.5t41.5 150t-19 122.5zM251 583q-43 0 -84.5 -22t-73 -55.5t-49.5 -73
t-15 -74.5t30.5 -59.5t87.5 -28.5q18 37 39 75t39 73t32 65t19.5 52t0 35t-25.5 13z" />
    <glyph glyph-name="X" unicode="X" horiz-adv-x="462" 
d="M247 408q45 65 92.5 117.5t95.5 78.5t95 20t90 -58q-44 9 -90 -9t-92 -54t-90.5 -86t-85.5 -106q10 -66 28.5 -127t41.5 -107t49 -73.5t51 -27.5q-6 -12 -17 -21q-9 -8 -23.5 -14t-37.5 -6q-32 0 -56 24t-40.5 66t-27.5 98t-17 119q-32 -47 -60.5 -92t-52.5 -84
t-42.5 -69t-30.5 -46q-13 0 -21 8q-4 4 -6 8q11 20 31 60t46.5 91t58.5 109.5t68 115.5q-5 52 -9.5 99t-11 82t-15.5 56t-21 21q-13 0 -26 -18t-22 -46t-11.5 -62t4.5 -66t26.5 -58.5t55.5 -38.5q-50 0 -79 23.5t-41.5 58.5t-10 75.5t16 75.5t36 58.5t49.5 23.5
q20 0 35.5 -17t27.5 -47t21.5 -70t17.5 -85z" />
    <glyph glyph-name="Y" unicode="Y" 
d="M656 564q-50 -50 -100 -114t-95 -133t-81 -137.5t-58 -127t-26.5 -102.5t14.5 -64q-20 7 -35 19q-14 11 -24.5 29t-10.5 47q0 30 10 67t27.5 78t41 84.5t49.5 86.5q-33 -41 -64 -79.5t-57 -67.5t-45.5 -46.5t-28.5 -17.5q-24 0 -34.5 12.5t-11 34.5t6.5 51.5t19 62.5
q-70 2 -106 29.5t-44.5 67.5t7 86t48 85.5t78.5 65.5t99 26q47 0 63 -26.5t12 -69t-22.5 -96t-41 -108t-42.5 -105.5t-28 -87q19 14 54.5 56t79 96.5t90.5 114.5t89 110t74.5 82.5t47.5 32.5q8 0 16 -4.5t14.5 -11.5t10.5 -14t4 -13zM227 583q-41 0 -80 -23t-67.5 -57.5
t-43 -75t-8.5 -75.5t37.5 -59.5t94.5 -26.5q13 36 28.5 73t29 72.5t24 66.5t14 54.5t-3 37t-25.5 13.5z" />
    <glyph glyph-name="Z" unicode="Z" horiz-adv-x="649" 
d="M700 558q0 -3 -28.5 -32t-75 -74t-106.5 -101.5t-122 -115.5t-122 -115t-106.5 -100.5t-75 -72t-28.5 -29.5q171 77 299 110q54 14 104.5 19t87.5 -5t54.5 -39t5.5 -84q-7 21 -33.5 30.5t-65.5 10.5t-87 -5t-97.5 -15t-96.5 -20.5t-85 -21t-63 -16t-29 -6.5q-7 0 -12.5 5
t-9.5 12t-6 14.5t-2 13.5q0 7 27 37t70.5 74t99.5 98t114.5 109t115 107.5t100 93.5t70.5 66t27 26q-33 -17 -76.5 -22t-90.5 -5.5t-94.5 -0.5t-89 -7t-74 -24t-48.5 -52q-6 59 6 95t37.5 54.5t61.5 23.5t78 2.5t88 -8.5t90.5 -9.5t85.5 -0.5t73 19q11 0 20 -11.5t9 -27.5z
" />
    <glyph glyph-name="a" unicode="a" horiz-adv-x="309" 
d="M339 169q-29 -48 -59 -85q-13 -16 -27 -31t-29 -27t-29.5 -19t-27.5 -7q-17 0 -32.5 13t-15.5 42v2q-24 -25 -47 -41t-43 -16q-19 0 -39 15.5t-20 50.5t21.5 80t54.5 85t72.5 67.5t75.5 27.5q22 0 35 -8t19.5 -19.5t8.5 -23t2 -18.5q8 -4 14.5 -10.5t10.5 -17.5
q-27 -28 -53 -64t-42.5 -67.5t-21 -53.5t12.5 -22t40 22.5t45 50.5q26 33 53 74h21zM40 23q16 0 41 25t52 59q11 26 27.5 53t32.5 49.5t29 37t16 14.5h5q-1 11 -6.5 24.5t-22.5 13.5q-24 0 -50 -20.5t-50 -51t-43.5 -66.5t-31 -66.5t-12.5 -51t13 -20.5z" />
    <glyph glyph-name="b" unicode="b" horiz-adv-x="278" 
d="M308 168q-18 -30 -44.5 -60t-58 -54t-66 -39t-66.5 -15q-24 0 -34 14.5t-10 23.5q14 -1 34.5 13.5t42 38.5t42 54t34.5 60.5t19.5 58t-2.5 45.5q-7 3 -17.5 -2.5t-23.5 -16.5t-27.5 -26t-27.5 -30q-38 -56 -62 -105.5t-21 -76.5q-23 15 -26.5 43t7 64t32 77t48 81.5
t55 77.5t52.5 65.5t41 45.5t21 17q19 0 33.5 -15.5t14.5 -28.5q-25 -24 -62 -67.5t-75 -95.5q11 7 25 11t26.5 -0.5t21 -19.5t8.5 -46q0 -27 -7 -56.5t-20 -59t-31.5 -57.5t-41.5 -51q29 14 55 36.5t46 43.5q23 25 43 52h22v0z" />
    <glyph glyph-name="c" unicode="c" horiz-adv-x="227" 
d="M73 21q25 0 54 22.5t53 50.5q28 33 56 74h21q-27 -47 -59 -84q-14 -16 -29.5 -31t-33 -27t-36.5 -19t-38 -7q-11 0 -24.5 4.5t-25 14t-19.5 25.5t-8 40q0 45 20.5 88t49 77t59.5 55t52 21q5 0 12.5 -3t14 -9t11.5 -13.5t5 -16.5t-5 -19.5t-14.5 -20t-23.5 -17.5t-31 -11
q12 15 19 28t10 24q4 12 4 23q-22 -12 -43.5 -36.5t-39 -54.5t-30 -61.5t-16 -57.5t4.5 -42.5t30 -16.5z" />
    <glyph glyph-name="d" unicode="d" horiz-adv-x="385" 
d="M475 477q-49 -46 -90 -98t-72 -102t-51.5 -95.5t-29 -80.5t-5 -55.5t21.5 -20.5q24 0 49.5 22.5t46.5 49.5q25 32 49 72h21q-26 -47 -55 -84q-12 -16 -26.5 -31t-30 -27t-32.5 -19t-34 -7q-31 0 -51.5 23.5t-20.5 60.5q0 5 0.5 11t1.5 12q-17 -21 -35 -40.5t-35.5 -34.5
t-34 -24t-31.5 -9q-9 0 -19 3.5t-19 11.5t-14.5 20.5t-5.5 30.5q0 35 21.5 80t54.5 85t72.5 67.5t74.5 27.5q20 0 32 -6.5t20 -15.5q27 43 56 83t55 70t45 48t26 18q19 0 32 -16t13 -30zM42 23q12 0 29 14t36 36t39 48.5t37 50.5q10 29 24 57.5t31 57.5q-7 12 -21 12
q-24 0 -50 -20.5t-50 -51t-44 -66.5t-31.5 -66.5t-12.5 -51t13 -20.5z" />
    <glyph glyph-name="e" unicode="e" horiz-adv-x="229" 
d="M258 168q-27 -47 -59 -84q-14 -16 -29.5 -31t-33 -27t-36.5 -19t-38 -7q-11 0 -24.5 4.5t-25 14t-19.5 25.5t-8 40q0 43 20 86t48.5 77.5t59.5 56t52 21.5q5 0 12.5 -3t14.5 -9t12 -13.5t5 -16.5q0 -17 -11 -40t-31.5 -44.5t-48 -36.5t-60.5 -16q-10 -24 -15.5 -46.5
t-4.5 -40t9.5 -28t26.5 -10.5q25 0 53.5 22.5t52.5 50.5q28 33 56 74h22zM166 280q-30 -17 -59 -52t-47 -79q28 20 48 42.5t33 42.5q15 23 25 46z" />
    <glyph glyph-name="f" unicode="f" horiz-adv-x="196" 
d="M215 183q5 3 7 -1.5t0 -7.5q-4 -4 -18.5 -12.5t-35.5 -17t-47 -13t-52 -1.5q2 -25 2.5 -59.5t-2.5 -70.5t-9.5 -71.5t-17.5 -64t-27.5 -46.5t-39.5 -20q-11 -1 -23 3t-22.5 13t-18.5 25t-9 39q-3 44 14.5 101t46.5 117t64 117.5t67 103t55.5 73.5t30.5 29q24 2 38 -11.5
t19 -28.5q-51 -53 -91 -108.5t-72 -109.5q7 -3 19.5 -6t30 -2t40.5 7.5t51 22.5zM-12 -163q15 1 28 31t22 73t13 92t2 88q-32 -59 -51.5 -111t-27.5 -90.5t-4.5 -61t18.5 -21.5z" />
    <glyph glyph-name="g" unicode="g" horiz-adv-x="317" 
d="M362 169q-35 -55 -77 -103q-18 -21 -39.5 -42t-46 -40.5t-51.5 -35.5t-56 -26q-41 -53 -81.5 -86.5t-84.5 -33.5q-29 0 -45.5 19t-10 42.5t42 43t110.5 20.5q19 24 38 52t38 57q-19 -17 -36.5 -26.5t-32.5 -9.5q-9 0 -19.5 3.5t-19.5 11.5t-14.5 20.5t-5.5 29.5
q0 35 21.5 80.5t54.5 85.5t72.5 67.5t75.5 27.5q22 0 35 -8t19.5 -19.5t8.5 -23t2 -18.5q13 -5 22.5 -15t9.5 -18q-46 -65 -90.5 -138.5t-89.5 -136.5q46 22 87 59t73 73q37 42 69 88h21zM41 23q11 0 26.5 12.5t33 32t36 43.5t35.5 48q26 45 43.5 73.5t24.5 28.5h3
q0 11 -5.5 24.5t-22.5 13.5q-24 0 -50 -20.5t-50 -51t-43.5 -66.5t-31 -66.5t-12.5 -51t13 -20.5zM-89 -159q22 0 46 18.5t50 48.5q-51 -1 -77.5 -11.5t-35.5 -23t-3.5 -22.5t20.5 -10z" />
    <glyph glyph-name="h" unicode="h" horiz-adv-x="296" 
d="M324 169q-29 -48 -59 -85q-13 -16 -27 -31t-29 -27t-29.5 -19t-27.5 -7q-17 0 -32.5 13t-15.5 42q0 24 11.5 55t28.5 62.5t37 61t38 51.5q-22 -18 -50 -45.5t-57.5 -64t-57.5 -81t-49 -94.5q-23 19 -25.5 51.5t9.5 73t35 85.5t51.5 89.5t58 85t55 71t43.5 49t22 18.5
q18 0 32.5 -15.5t14.5 -28.5q-30 -28 -67 -72t-74.5 -95.5t-71 -105.5t-54.5 -103q26 43 60 83.5t67 71.5t60.5 49.5t40.5 18.5q14 0 26.5 -7.5t17.5 -24.5q-20 -18 -41.5 -44.5t-41 -57t-35 -61t-24.5 -54.5t-9.5 -39.5t10.5 -15.5q17 0 40 22.5t45 50.5q26 33 53 74h21z
" />
    <glyph glyph-name="i" unicode="i" horiz-adv-x="159" 
d="M29 22q17 0 40 22.5t45 50.5q26 33 53 74h22q-30 -48 -60 -85q-13 -16 -27 -31t-29 -27t-29.5 -19t-27.5 -7q-17 0 -32.5 13t-15.5 42q0 23 10.5 52t26 59.5t34.5 59t36.5 51t31 36t18.5 13.5q16 0 28.5 -7.5t17.5 -24.5q-21 -18 -42.5 -44.5t-41 -57t-35 -61
t-24.5 -54.5t-9.5 -39.5t10.5 -15.5zM169 337q18 67 45 105q11 16 25.5 27.5t32 13t38 -9.5t43.5 -39q-36 0 -69 -10q-29 -9 -60.5 -29t-54.5 -58z" />
    <glyph glyph-name="j" unicode="j" horiz-adv-x="163" 
d="M193 169q-36 -56 -78 -104q-18 -21 -40 -42t-46.5 -40.5t-51.5 -35.5t-56 -26q-39 -52 -80 -85.5t-84 -33.5q-28 0 -45 19t-11 42t40 42.5t108 21.5q27 35 55 78t54.5 87.5t51 86.5t45 74.5t36 52.5t24.5 20q18 0 33 -13t15 -24q-25 -27 -51.5 -67.5t-54.5 -87
t-57.5 -95.5t-59.5 -92q46 22 88 59.5t74 73.5q38 42 70 89h21zM-258 -159q20 0 43 18t49 49q-49 -1 -75 -11.5t-34.5 -23t-2.5 -22.5t20 -10zM146 337q19 67 45 105q11 16 25.5 27.5t31.5 13t37.5 -10t43.5 -39.5q-36 0 -69 -10q-29 -8 -60 -28t-54 -58z" />
    <glyph glyph-name="k" unicode="k" horiz-adv-x="278" 
d="M305 169q-24 -48 -53 -85q-12 -16 -27 -31t-31.5 -27t-34 -19t-36.5 -7q-21 0 -36 13.5t-24.5 32t-14.5 39.5t-7 36l-6 -13.5t-12.5 -32.5t-12.5 -39.5t-6 -35.5q-23 19 -25.5 51.5t9.5 73t35 85.5t51 89.5t58 85t55.5 71t43.5 49t22 18.5q18 0 32.5 -15.5t14.5 -28.5
q-33 -32 -75 -82t-84 -109q12 10 24 19q11 7 22.5 13t22.5 6q25 0 38.5 -17t13.5 -33t-10 -34t-27 -35.5t-38 -32.5t-44 -26t-45 -15.5t-40 -0.5q2 -15 7 -34.5t12.5 -37t19 -29.5t26.5 -12q29 0 59 23t53 52q27 33 52 75h18zM221 290q-13 -9 -33 -26.5t-42.5 -38.5t-44 -43
t-37.5 -38q29 11 56.5 31.5t49 42.5t35 42t16.5 30z" />
    <glyph glyph-name="l" unicode="l" horiz-adv-x="206" 
d="M250 522q18 0 31.5 -16t13.5 -30q-74 -70 -128.5 -149t-85.5 -146.5t-35 -112t22 -44.5q24 0 50 22.5t47 49.5q25 32 49 72h21q-26 -47 -55 -84q-12 -16 -26.5 -31t-30 -27t-32.5 -19t-34 -7q-31 0 -51.5 23.5t-20.5 60.5q0 39 17.5 87t44.5 96.5t59.5 94.5t61.5 81.5
t51.5 57t30.5 21.5z" />
    <glyph glyph-name="m" unicode="m" horiz-adv-x="422" 
d="M451 169q-28 -48 -58 -85q-13 -16 -27 -31t-28.5 -27t-29 -19t-27.5 -7q-20 0 -35 13t-15 42q0 33 17.5 74.5t41.5 79.5q-20 -26 -41 -54t-41 -55.5t-38 -53t-31 -46.5q-15 0 -26 13.5t-11 35.5q0 21 9 49t23.5 57.5t31.5 58.5t33 53q-22 -25 -49 -59.5t-54 -71.5
t-52 -73t-43 -63q-16 0 -26.5 13.5t-10.5 35.5t10 51t24.5 59.5t32.5 60.5t34 53.5t28 38t16 14.5q16 0 30 -9t17 -24q-62 -85 -93.5 -143t-45.5 -93q12 20 32 47.5t42.5 57t46.5 59t45.5 53t38 38t25.5 14.5q16 0 28.5 -10.5t15.5 -26.5q-62 -84 -93.5 -142.5t-44.5 -92.5
q12 19 32 46.5t43 58t47.5 60t46 53.5t38.5 39t26 15q12 0 26.5 -9t16.5 -26q-21 -17 -42 -44t-40 -57t-34 -60t-23.5 -54t-9 -39t10.5 -15q17 0 40.5 22.5t45.5 50.5q26 33 53 74h21z" />
    <glyph glyph-name="n" unicode="n" horiz-adv-x="281" 
d="M313 169q-28 -48 -58 -85q-13 -16 -27 -31t-28.5 -27t-29 -19t-27.5 -7q-20 0 -35 13t-15 42q0 30 14.5 66t34.5 71q-19 -24 -38 -50t-37 -51t-34.5 -48.5t-28.5 -42.5q-16 0 -26.5 13.5t-10.5 35.5t10 51t24.5 59.5t32.5 60.5t34 53.5t28 38t16 14.5q16 0 30 -9t18 -24
q-62 -85 -94 -143t-46 -93q12 19 32 46.5t42.5 57.5t46.5 59.5t45.5 53t37.5 38t24 14.5q14 0 26.5 -9t16.5 -26q-21 -17 -42 -44t-40 -57t-34 -60t-23.5 -54t-9 -39t10.5 -15q17 0 40.5 22.5t45.5 50.5q26 33 52 74h22z" />
    <glyph glyph-name="o" unicode="o" horiz-adv-x="243" 
d="M297 169q-18 -31 -39 -51t-42.5 -33t-42 -19t-35.5 -8q-23 -27 -47 -42.5t-40 -15.5q-30 0 -50.5 19.5t-20.5 55.5q0 47 23 92t53 80.5t58.5 57t39.5 21.5q12 0 21.5 -15t9.5 -25q-5 -2 -8 -5q13 -29 16 -56.5t-1 -53t-14 -49t-23 -43.5q24 4 44.5 15.5t36 25.5
t25.5 27.5t14 21.5h22zM26 27q11 5 21.5 13t19.5 17q0 25 11.5 35.5t25.5 11.5q13 21 23 44t17.5 45t12.5 42.5t7 36.5q-31 -24 -56.5 -53.5t-43.5 -61.5t-28 -65.5t-10 -64.5z" />
    <glyph glyph-name="p" unicode="p" horiz-adv-x="326" 
d="M355 169q-27 -48 -65 -85q-16 -16 -36 -31t-44 -27t-51.5 -19t-58.5 -7q-22 0 -35.5 7t-21.5 16t-11 16.5t-3 8.5q28 -2 53 11t46.5 36t39 52t29 58.5t18 55.5t5.5 44q-7 -5 -30 -30t-51 -58t-56 -67t-46 -56q-23 -37 -43.5 -75.5t-37 -76.5t-27.5 -74t-14 -66
q-23 15 -27.5 45t4.5 69.5t28 85t43.5 91t51 87t49.5 74t40.5 51.5t23.5 19q15 0 27.5 -11t17.5 -22q14 15 26.5 25t20.5 10q4 0 12 -2.5t16 -9t13.5 -18t5.5 -29.5q0 -27 -8.5 -61.5t-24.5 -68t-37.5 -63t-47.5 -46.5q42 6 76 29t58 48q28 29 50 64h22z" />
    <glyph glyph-name="q" unicode="q" horiz-adv-x="347" 
d="M376 169q-29 -47 -63 -84q-15 -16 -32.5 -31t-37.5 -27t-42 -19t-46 -7q1 -13 2.5 -33t0.5 -42t-4.5 -44t-11 -40t-20 -29t-31.5 -11q-17 0 -32 15t-15 46q0 37 14 80t36 88q-17 -14 -33.5 -22.5t-30.5 -8.5q-9 0 -19 3.5t-19 11.5t-14.5 20t-5.5 30q0 35 21.5 80.5
t54.5 85.5t72.5 67.5t75.5 27.5q21 0 33.5 -7.5t19.5 -18t9 -21.5t2 -19q12 -2 22.5 -9.5t13.5 -21.5q-45 -55 -80.5 -107.5t-61.5 -99.5q40 0 76 22.5t64 50.5q33 33 61 74h21zM42 23q15 0 40 24t51 56q34 57 66 99t45 55q0 6 -1 13t-4 13.5t-8.5 11t-14.5 4.5
q-24 0 -50 -20.5t-50 -51t-43.5 -66.5t-31 -66.5t-12.5 -51t13 -20.5zM104 -176q12 0 19.5 17.5t11.5 43.5t4.5 54.5t-1.5 51.5q-38 -74 -46 -120.5t12 -46.5z" />
    <glyph glyph-name="r" unicode="r" horiz-adv-x="260" 
d="M292 169q-25 -48 -53 -85q-12 -16 -25.5 -31t-28 -27t-29.5 -19t-30 -7q-25 0 -42.5 18t-17.5 53q0 15 6 35t16.5 42t23 45t26.5 45q32 51 72 106l-7 -3t-19.5 -6.5t-28.5 -6.5t-33 -3l-93 -161q-5 -8 -9.5 -10t-7.5 -0.5t-4 5.5t1 10l91 162q-29 14 -29 49q0 26 11 51.5
t25 46t27.5 33t18.5 12.5q20 0 35.5 -13.5t16.5 -27.5q-19 -16 -36.5 -37.5t-27.5 -41t-10 -33.5t17 -14q12 0 25.5 4t25.5 8.5t21 8.5t12 4q9 0 17 -5t14.5 -12.5t10.5 -16t4 -16.5q-35 -51 -70 -106t-59 -101.5t-31.5 -76.5t13.5 -30t45 23.5t45 52.5q25 33 49 76h22z" />
    <glyph glyph-name="s" unicode="s" horiz-adv-x="179" 
d="M210 169q-46 -75 -94 -134q-21 -25 -44 -49t-47 -42.5t-48.5 -30t-47.5 -11.5q-32 0 -48.5 12t-24.5 26q-9 17 -9 39q4 -8 10 -14q5 -5 13.5 -9t20.5 -4q27 0 50.5 26t44.5 66t40 87t36 88q-7 -11 -14 -21.5t-12 -18.5q-6 -10 -12 -19q-6 -10 -14.5 -6.5t-1.5 15.5l34 52
q14 22 30.5 45t30.5 39q13 21 26 21q20 0 30.5 -11t10.5 -23q-30 -33 -51.5 -80t-40.5 -96.5t-39 -95.5t-46 -75q19 13 37 29.5t35.5 34.5t33 37t29.5 37q32 41 60 86h22z" />
    <glyph glyph-name="t" unicode="t" horiz-adv-x="209" 
d="M296 421q2 -4 -1.5 -13t-8.5 -9q-1 0 -14.5 4t-35.5 10q-59 -67 -101 -136t-64 -125.5t-23 -92t22 -35.5q24 0 50 22.5t47 49.5q25 32 49 72h21q-26 -47 -55 -84q-12 -16 -26.5 -31t-30.5 -27t-33 -19t-34 -7q-30 0 -50.5 23.5t-20.5 60.5q0 38 16 83.5t41.5 92t56 91
t59.5 80.5q-27 5 -55 8.5t-51 2t-40.5 -8t-23.5 -20.5q-6 41 12 64q8 10 22 16.5t36.5 7.5t55 -6t77.5 -25q21 24 37 38t22 14q18 0 31.5 -16t13.5 -30q-19 -18 -37 -37q18 -8 36 -18z" />
    <glyph glyph-name="u" unicode="u" horiz-adv-x="313" 
d="M342 169q-30 -48 -60 -85q-13 -16 -27 -31t-29 -27t-29.5 -19t-27.5 -7q-17 0 -32.5 13t-15.5 42q0 17 5.5 36.5t14.5 40.5q-16 -26 -32 -50t-32 -42t-31.5 -29t-30.5 -11q-17 0 -32 13t-15 42q0 23 10 52t26 59.5t35 59t36 51t30.5 36t18.5 13.5q16 0 28.5 -7.5
t17.5 -24.5q-21 -18 -42.5 -44.5t-41 -57t-35 -61t-24.5 -54.5t-9.5 -39.5t10.5 -15.5t30.5 22.5t43.5 56.5t50 73t50 73t44 56.5t32 22.5q14 0 27.5 -7.5t18.5 -24.5q-21 -18 -42.5 -44.5t-41 -57t-35 -61t-24.5 -54.5t-9.5 -39.5t10.5 -15.5q17 0 40 22.5t45 50.5
q26 33 53 74h22z" />
    <glyph glyph-name="v" unicode="v" horiz-adv-x="289" 
d="M304 161q0 8 7.5 8t7.5 -10q0 -31 -15.5 -50t-36.5 -24t-43.5 4.5t-35.5 35.5q-22 -25 -45.5 -47.5t-46.5 -40t-44 -27.5t-37 -10q-15 0 -31.5 13.5t-16.5 35.5t10 51t24.5 59.5t32.5 60.5t34 53.5t28 38t16 14.5q17 0 30.5 -9t17.5 -24q-39 -50 -64.5 -91.5t-41.5 -74
t-24.5 -57t-11.5 -40.5q26 18 69 63.5t87 108.5q1 28 9 51t18.5 39t23 25t24.5 9q4 0 11 -1.5t14 -6t11.5 -12t4.5 -18.5q0 -20 -24 -59.5t-60 -83.5q10 -27 26.5 -37t32.5 -7t27.5 18.5t11.5 41.5z" />
    <glyph glyph-name="w" unicode="w" horiz-adv-x="457" 
d="M472 161q0 8 7.5 8t7.5 -10q0 -31 -15.5 -50t-36.5 -24t-43 4.5t-36 35.5q-22 -25 -46 -47.5t-47.5 -40t-45 -27.5t-39.5 -10t-33.5 17t-15.5 49q0 30 13 67q-16 -26 -32 -50t-32 -42.5t-31.5 -29.5t-30.5 -11q-17 0 -32.5 13t-15.5 42q0 23 10.5 52t26 59.5t34.5 59
t36.5 51t31 36t18.5 13.5q16 0 28.5 -7.5t17.5 -24.5q-21 -18 -42.5 -44.5t-41 -57t-35 -61t-24.5 -54.5t-9.5 -39.5t10.5 -15.5t29.5 22.5t41 56.5t47 73t49 73t46 56.5t37.5 22.5q15 0 28 -7.5t17 -24.5q-30 -26 -58 -62t-48 -74.5t-31 -73.5t-6 -57q25 15 69.5 62.5
t91.5 112.5q1 28 9 51t18.5 39t23 25t24.5 9q4 0 11 -1.5t14 -6t11.5 -12t4.5 -18.5q0 -20 -24 -59.5t-60 -83.5q10 -27 26.5 -37t32.5 -7t27.5 18.5t11.5 41.5z" />
    <glyph glyph-name="x" unicode="x" horiz-adv-x="317" 
d="M25 160q-5 -8 -13.5 -5t-2.5 14q27 44 52 78q10 15 21.5 29t22 25t19.5 18t15 7q17 0 29.5 -8.5t12.5 -18.5q0 -3 -2 -15t-5 -29q38 33 66 52t33 19q14 0 24.5 -15.5t10.5 -29.5q-85 -54 -144 -104q-2 -20 -1 -45.5t5 -48.5t12.5 -39t22.5 -16q21 0 42.5 22t39.5 48
q21 31 41 71h21q-23 -48 -49 -85q-11 -16 -24.5 -31t-27.5 -27t-29.5 -19t-31.5 -7q-23 0 -38.5 9t-25.5 25t-15 37t-7 44q-24 -26 -39.5 -47t-24.5 -36q-11 -18 -16 -32q1 47 24 92.5t56 85.5q2 32 6.5 58.5t8.5 41.5q-14 -14 -29 -33.5t-29 -38.5q-16 -22 -31 -46z" />
    <glyph glyph-name="y" unicode="y" horiz-adv-x="323" 
d="M355 169q-36 -56 -78 -104q-18 -21 -40 -42t-46.5 -40.5t-51.5 -35.5t-56 -26q-39 -52 -80 -85.5t-84 -33.5q-28 0 -45 19t-11 42t40 42.5t108 21.5q32 41 64.5 92.5t63.5 103.5q-15 -24 -31 -46.5t-32 -39.5t-31.5 -27t-30.5 -10q-17 0 -32 13t-15 42q0 23 10.5 52
t26 59.5t34.5 59t36.5 51t30.5 36t18 13.5q16 0 28.5 -8t17.5 -24q-21 -18 -42.5 -44.5t-41 -57t-35 -61t-24.5 -54.5t-9.5 -39.5t10.5 -15.5t31 22.5t44.5 56.5t50.5 73t50.5 73t43.5 56.5t30 22.5q18 0 33 -13t15 -24q-25 -27 -51.5 -67.5t-54.5 -87t-57.5 -95.5
t-59.5 -92q46 22 88 59.5t74 73.5q38 42 70 89h21zM-96 -159q20 0 43 18t49 49q-49 -1 -75 -11.5t-34.5 -23t-2.5 -22.5t20 -10z" />
    <glyph glyph-name="z" unicode="z" horiz-adv-x="304" 
d="M292 278q0 -5 -21 -22.5t-52 -40.5t-67.5 -49.5t-67.5 -48.5t-52 -37.5t-21 -17.5q9 4 30 11t47.5 11.5t53 5.5t45.5 -7.5t26.5 -28t-5.5 -54.5q-2 20 -26 29q-10 4 -26 5.5t-40 -1.5t-56.5 -10.5t-75.5 -22.5q-7 3 -11 8t-7 12.5t-3 18.5q0 4 13 17t34 30t48 38t56 42
q66 49 151 110q-6 -2 -28.5 -10t-52 -15t-59.5 -9.5t-51 6.5q-12 -22 -22 -40q-9 -16 -17 -30t-11 -18q-6 -10 -14 -6t-2 15q4 7 12.5 22t16.5 31q10 18 20 39q-8 10 -9.5 26t6.5 39q22 -13 52 -18q26 -5 62 -2.5t83 21.5q6 2 13 -1t13 -10t10.5 -17t4.5 -21z" />
    <glyph glyph-name="m.ss01" horiz-adv-x="422" 
d="M464 279q51 -7 72.5 -36.5t19.5 -69t-23.5 -83.5t-54.5 -81t-74 -61t-83 -24q-45 0 -70.5 29.5t-25.5 78.5q0 36 10 71.5t27 67.5q-35 -45 -67.5 -91t-55.5 -81q-15 0 -26 13.5t-11 35.5q0 21 9 49t23.5 57.5t31.5 58.5t33 53q-22 -26 -49 -60.5t-54 -71t-52 -72.5
t-43 -63q-16 0 -26.5 13.5t-10.5 35.5q0 21 10 50t24.5 60t32.5 61t34 53.5t28 38t16 14.5q16 0 30 -9t18 -24q-62 -85 -94 -143t-46 -93q12 19 32 47t42.5 57.5t46.5 59t45.5 53t38.5 38t25 14.5q17 0 29 -10.5t16 -26.5q-63 -85 -94 -142.5t-45 -92.5q13 20 32.5 47.5
t42.5 58t47.5 60t46.5 53.5t39.5 38.5t26.5 14.5q14 0 26 -9.5t16 -26.5q-52 -51 -87.5 -110.5t-51.5 -111.5t-10 -86.5t37 -34.5q26 0 52.5 19t49 48.5t39.5 67t24.5 74.5t3.5 70t-23 54z" />
    <glyph glyph-name="g.ss04" horiz-adv-x="331" 
d="M111 -60q47 -7 101 -15.5t108 -15t104.5 -10t91 0t68.5 15.5t36 36q0 -52 -25.5 -80t-69 -39t-99.5 -7.5t-117.5 13.5t-123.5 24t-116 25q-34 -38 -68.5 -61.5t-70.5 -23.5q-11 0 -23 3.5t-21.5 11.5t-15.5 20t-6 30q0 25 16.5 43t42 29t57.5 13.5t63 -3.5q14 20 29 42.5
t29 45.5q-19 -17 -37 -27t-33 -10q-9 0 -19.5 3.5t-19.5 11.5t-14.5 20t-5.5 30q0 35 21.5 80.5t54.5 85.5t72.5 67.5t75.5 27.5q22 0 34.5 -8t19.5 -18.5t9 -22.5t2 -19q14 -5 24.5 -16t10.5 -21q-24 -33 -47 -69.5l-46 -73t-46 -72t-46 -66.5zM42 23q11 0 26.5 12t33 31.5
t35.5 43.5t35 48q3 5 12 21.5t20.5 34.5t22.5 32.5t18 14.5q-1 11 -6.5 24.5t-22.5 13.5q-24 0 -50 -20.5t-50 -51t-43.5 -66.5t-31 -66.5t-12.5 -51t13 -20.5zM-84 -159q20 0 42 15.5t45 41.5q-52 8 -83.5 2.5t-31.5 -33.5q0 -12 8.5 -19t19.5 -7z" />
    <glyph glyph-name="h.ss07" horiz-adv-x="296" 
d="M325 169q-30 -48 -60 -85q-13 -16 -27 -31t-29 -27t-29.5 -19t-27.5 -7q-17 0 -32 13t-15 42q0 24 11 55t28 62.5t37 61t38 51.5q-21 -18 -49.5 -46t-57.5 -64.5t-57 -80.5t-49 -94q-22 18 -25 48.5t7 68t31 80.5t47 85.5t54.5 82.5t54.5 72q-49 -26 -100 -31.5t-101.5 0
t-97.5 17t-88 18t-74 3t-55 -26.5q21 53 47.5 77t57.5 28t66 -6.5t73 -25.5t78.5 -29t82.5 -17t84.5 9.5t85.5 51.5q11 11 14.5 14t5.5 3q19 0 33 -15.5t14 -28.5q-29 -28 -66.5 -72t-74.5 -95t-70.5 -105.5t-55.5 -102.5q14 21 34.5 46t43.5 49.5t47 47.5t45 41t36.5 28.5
t22.5 10.5q13 -1 25.5 -8.5t18.5 -24.5q-21 -17 -42.5 -44t-41 -57t-35 -60.5t-24.5 -54.5t-9.5 -39.5t10.5 -15.5q17 0 40.5 22.5t45.5 50.5q26 33 52 74h22z" />
    <glyph glyph-name="Calingham_Preview" horiz-adv-x="2915" 
d="M1335 434q-36 0 -69 -10q-29 -9 -60.5 -29t-54.5 -58q18 67 45 105q11 16 25.5 27.5t32 13t38 -9.5t43.5 -39zM1535 -60q47 -7 101 -15.5t108 -15t104.5 -10t91 0t68.5 15.5t36 36q0 -52 -25.5 -80t-69 -39t-99.5 -7.5t-117.5 13.5t-123.5 24t-116 25
q-34 -38 -68.5 -61.5t-70.5 -23.5q-11 0 -23 3.5t-21.5 11.5t-15.5 20t-6 30q0 25 16.5 43t42 29t57.5 13.5t63 -3.5q14 20 29 42.5t29 45.5q-19 -17 -37 -27t-33 -10q-9 0 -19.5 3.5t-19.5 11.5t-14.5 20t-5.5 30q0 11 3 25q-13 -17 -27.5 -33t-29.5 -28.5t-30 -20.5
t-29 -8q-20 0 -35 13t-15 42q0 30 14.5 66t34.5 71q-19 -24 -38 -50t-37 -51t-34.5 -48.5t-28.5 -42.5q-16 0 -26.5 13.5t-10.5 35.5q0 17 6 38q-13 -16 -27.5 -31.5t-29.5 -28t-30 -20t-28 -7.5q-17 0 -32.5 13t-15.5 42q0 13 3 28q-25 -32 -56.5 -57.5t-65.5 -25.5
q-20 0 -35.5 10.5t-25 27.5t-12 37.5t3.5 41.5q-14 -19 -30.5 -39.5t-34.5 -38t-36.5 -28.5t-35.5 -11t-32.5 13t-15.5 42v2q-24 -25 -47 -41t-43 -16q-19 0 -39 15.5t-20 50.5v8q-24 -33 -53.5 -66.5t-63 -60.5t-70.5 -44t-75 -17q-24 0 -49.5 10t-47 32t-35.5 57t-14 85
q0 65 18.5 130.5t49.5 125t71.5 111t84.5 89.5t88.5 59.5t83.5 21.5t57.5 -29t19 -72t-14 -93t-42 -93t-65.5 -71t-84 -26q26 15 51 47t46 71t36 80.5t21 76t1.5 56.5t-22.5 22q-23 0 -55.5 -19t-68 -52.5t-71 -80.5t-64 -104t-46 -121.5t-17.5 -132.5q0 -57 22 -92.5
t66 -35.5q41 0 80 21t73 53.5t63 70.5t51 71q16 31 39.5 62t50.5 55.5t55 39.5t54 15q22 0 35 -8t19.5 -19.5t8.5 -23t2 -18.5q8 -4 14.5 -10.5t10.5 -17.5q-27 -28 -53 -64t-42.5 -67.5t-21 -53.5t12.5 -22q18 0 38.5 17.5t40 41.5t35 49t24.5 39q13 39 35 80.5t47.5 80.5
t52 74t50 61t40.5 41.5t23 15.5q18 0 31.5 -16t13.5 -30q-74 -70 -128.5 -149t-85.5 -146.5t-35 -112t22 -44.5q20 0 41.5 16.5t41 38.5t34.5 44.5l23 34.5q16 31 35.5 61t38 54t32.5 38.5t19 14.5q16 0 28.5 -7.5t17.5 -24.5q-21 -18 -42.5 -44.5t-41 -57t-35 -61
t-24.5 -54.5t-9.5 -39.5t10.5 -15.5q13 0 31 15t36 36t34.5 43.5t25.5 36.5q15 31 33.5 62t35 56t29 40t16.5 15q16 0 30 -9t18 -24q-62 -85 -94 -143t-46 -93q12 19 32 46.5t42.5 57.5t46.5 59.5t45.5 53t37.5 38t24 14.5q14 0 26.5 -9t16.5 -26q-20 -17 -41.5 -44
t-40.5 -57t-34 -60t-23.5 -54t-9 -39t10.5 -15q16 0 35.5 16.5t38 39t33.5 45.5t24 36q12 22 32.5 51t46.5 55t56 43.5t61 17.5q22 0 34.5 -8t19.5 -18.5t9 -22.5t2 -19q14 -5 24.5 -16t10.5 -21q-24 -33 -47 -69.5l-46 -73t-46 -72t-46 -66.5zM591 107q11 26 27.5 53
t32.5 49.5t29 37t16 14.5h5q-1 11 -6.5 24.5t-22.5 13.5q-24 0 -50 -20.5t-50 -51t-43.5 -66.5t-31 -66.5t-12.5 -51t13 -20.5q16 0 41 25t52 59zM1340 -159q20 0 42 15.5t45 41.5q-52 8 -83.5 2.5t-31.5 -33.5q0 -12 8.5 -19t19.5 -7zM1466 23q11 0 26.5 12t33 31.5
t35.5 43.5t35 48q3 5 12 21.5t20.5 34.5t22.5 32.5t18 14.5q-1 11 -6.5 24.5t-22.5 13.5q-24 0 -50 -20.5t-50 -51t-43.5 -66.5t-31 -66.5t-12.5 -51t13 -20.5zM2800 279q51 -7 72.5 -36.5t19.5 -69t-23.5 -83.5t-54.5 -81t-74 -61t-83 -24q-45 0 -70.5 29.5t-25.5 78.5
q0 36 10 71.5t27 67.5q-35 -45 -67.5 -91t-55.5 -81q-15 0 -26 13.5t-11 35.5q0 21 9 49t23.5 57.5t31.5 58.5t33 53q-22 -26 -49 -60.5t-54 -71t-52 -72.5t-43 -63q-16 0 -26.5 13.5t-10.5 35.5q0 10 2 20t5 21q-13 -17 -27.5 -32.5t-29.5 -28.5t-30 -20.5t-29 -7.5
q-17 0 -32.5 13t-15.5 42v2q-24 -25 -47 -41t-43 -16q-19 0 -39 15.5t-20 50.5q0 12 3 26q-13 -17 -28 -33t-30.5 -29.5t-31 -21.5t-29.5 -8q-17 0 -32 13t-15 42q0 24 11 55t28 62.5t37 61t38 51.5q-21 -18 -49.5 -46t-57.5 -64.5t-57 -80.5t-49 -94q-22 18 -25 48.5t7 68
t31 80.5t47 85.5t54.5 82.5t54.5 72q-49 -26 -100 -31.5t-101.5 0t-97.5 17t-88 18t-74 3t-55 -26.5q21 53 47.5 77t57.5 28t66 -6.5t73 -25.5t78.5 -29t82.5 -17t84.5 9.5t85.5 51.5q11 11 14.5 14t5.5 3q19 0 33 -15.5t14 -28.5q-29 -28 -66.5 -72t-74.5 -95t-70.5 -105.5
t-55.5 -102.5q14 21 34.5 46t43.5 49.5t47 47.5t45 41t36.5 28.5t22.5 10.5q13 -1 25.5 -8.5t18.5 -24.5q-21 -17 -42.5 -44t-41 -57t-35 -60.5t-24.5 -54.5t-9.5 -39.5t10.5 -15.5q15 0 34 16t37 37.5t34 44.5t25 37q16 31 39.5 61.5t50 54.5t54 38.5t53.5 14.5q22 0 35 -8
t19.5 -19.5t8.5 -23t2 -18.5q8 -4 14.5 -10.5t10.5 -17.5q-27 -28 -53 -64t-42.5 -67.5t-21 -53.5t12.5 -22q18 0 45 28.5t56.5 69.5t57.5 86.5t49 79t30.5 47.5t2.5 -8q16 0 30 -9t18 -24q-62 -85 -94 -143t-46 -93q13 19 32.5 47t42 57.5t46.5 59t45.5 53t38.5 38t25 14.5
q17 0 29 -10.5t16 -26.5q-63 -85 -94 -142.5t-45 -92.5q13 20 32.5 47.5t42.5 58t47.5 60t46.5 53.5t39.5 38.5t26.5 14.5q14 0 26 -9.5t16 -26.5q-52 -51 -87.5 -110.5t-51.5 -111.5t-10 -86.5t37 -34.5q26 0 52.5 19t49 48.5t39.5 67t24.5 74.5t3.5 70t-23 54zM2157 107
q11 26 27.5 53t32.5 49.5t29 37t16 14.5h5q-1 11 -6.5 24.5t-22.5 13.5q-24 0 -50 -20.5t-50 -51t-43.5 -66.5t-31 -66.5t-12.5 -51t13 -20.5q16 0 41 25t52 59z" />
    </font>
</defs>
</svg>
