<?xml version="1.0" standalone="no"?>
<!DOCTYPE svg PUBLIC "-//W3C//DTD SVG 20010904//EN"
 "http://www.w3.org/TR/2001/REC-SVG-20010904/DTD/svg10.dtd">
<svg version="1.0" xmlns="http://www.w3.org/2000/svg"
 width="200.000000pt" height="200.000000pt" viewBox="0 0 200.000000 200.000000"
 preserveAspectRatio="xMidYMid meet">
<metadata>
Created by potrace 1.13, written by Peter Selinger 2001-2015
</metadata>
<g transform="translate(0.000000,200.000000) scale(0.100000,-0.100000)"
fill="#000000" stroke="none">
<path d="M798 1148 l-3 -213 -47 -3 c-40 -3 -48 -6 -48 -23 0 -16 7 -19 50
-19 l50 0 0 -125 0 -125 40 0 40 0 0 125 0 125 110 0 110 0 0 -125 0 -125 40
0 40 0 0 125 0 125 60 0 c53 0 60 2 60 20 0 16 -8 19 -57 22 l-58 3 -3 213 -2
212 -40 0 -40 0 -2 -212 -3 -213 -105 0 -105 0 -3 213 -2 212 -40 0 -40 0 -2
-212z"/>
</g>
</svg>
